<?xml version="1.0" encoding="UTF-8"?>
<svg width="90px" height="90px" viewBox="0 0 90 90" version="1.1" xmlns="http://www.w3.org/2000/svg" xmlns:xlink="http://www.w3.org/1999/xlink">
    <!-- Generator: Sketch 43.1 (39012) - http://www.bohemiancoding.com/sketch -->
    <title>community</title>
    <desc>Created with Sketch.</desc>
    <defs>
        <path d="M41.8316916,11.6074533 C43.3715446,12.0757632 44.8227835,12.2624193 46.1616298,12.2624193 C47.5833308,12.2624193 48.8686894,12.0482426 49.9998005,11.7410258 L49.9998004,2.84739796 C48.9233176,3.42924451 46.6498619,4.31266566 43.8041791,3.4476683 C41.3877665,2.71273147 39.4255432,2.34776754 37.820969,2.23434605 L37.820969,1.46215866 C37.820969,0.654390261 37.1726159,0 36.3732085,0 C35.573744,0 34.9253339,0.654447874 34.9253339,1.46215866 L34.9253339,12.9973561 L27.1399644,5.13131556 C26.5790848,4.56035052 25.7988942,4.23304028 25.0017677,4.23304028 C24.1931795,4.23304028 23.4358552,4.55119623 22.8635139,5.12786112 L0.414757837,27.8090534 C-0.138252612,28.3676399 -0.138252612,29.2731696 0.414757837,29.8318137 L0.831539975,30.2525672 C1.09721081,30.5208638 1.45725491,30.6710753 1.83315143,30.6710753 C2.21007439,30.6710753 2.56897803,30.5202305 2.83578932,30.2519915 L6.34356786,26.7077709 L6.34356786,46.0883398 L5.50777968,46.0883398 C4.43694212,46.0883398 3.56939202,46.9639884 3.56939202,48.0443714 C3.56939202,49.1246969 4.43694212,50 5.50777968,50 L44.4935319,50 C45.5620315,50 46.4295815,49.1246393 46.4295815,48.0443714 C46.4295815,46.9639884 45.5620314,46.0883398 44.4935319,46.0883398 L43.6633889,46.0883398 L43.6633889,26.7138162 L47.1642677,30.2519914 C47.4299955,30.5208637 47.7899826,30.6715358 48.1658791,30.6715358 L48.1669626,30.6715358 C48.5417186,30.6715358 48.9016487,30.5211516 49.1673766,30.2531429 L49.5852422,29.8320439 C50.1382526,29.2736877 50.1382526,28.3682156 49.5852422,27.8098594 L37.820912,15.9238613 L37.820912,10.7094083 C38.7339095,10.812927 40.0295893,11.0594029 41.8316916,11.6074533 Z M30.196804,46.0883973 L19.8065604,46.0883973 L19.8065604,34.9671019 L30.196804,34.9671019 L30.196804,46.0883973 Z" id="path-1"></path>
        <filter x="-6.0%" y="-6.0%" width="112.0%" height="112.0%" filterUnits="objectBoundingBox" id="filter-2">
            <feOffset dx="0" dy="0" in="SourceAlpha" result="shadowOffsetOuter1"></feOffset>
            <feGaussianBlur stdDeviation="1" in="shadowOffsetOuter1" result="shadowBlurOuter1"></feGaussianBlur>
            <feComposite in="shadowBlurOuter1" in2="SourceAlpha" operator="out" result="shadowBlurOuter1"></feComposite>
            <feColorMatrix values="0 0 0 0 0.140726216   0 0 0 0 0.400599153   0 0 0 0 0.703603316  0 0 0 1 0" type="matrix" in="shadowBlurOuter1"></feColorMatrix>
        </filter>
    </defs>
    <g id="Page-3---申请图" stroke="none" stroke-width="1" fill="none" fill-rule="evenodd">
        <g id="community">
            <circle id="Oval" fill="#78AFFF" cx="45" cy="45" r="45"></circle>
            <g id="Group-5" transform="translate(20.000000, 18.000000)" fill-rule="nonzero">
                <g id="Shape">
                    <use fill="black" fill-opacity="1" filter="url(#filter-2)" xlink:href="#path-1"></use>
                    <use fill-opacity="0.800000012" fill="#FFFFFF" fill-rule="evenodd" xlink:href="#path-1"></use>
                </g>
                <path d="M27.1399644,5.13131556 C26.5790848,4.56035052 25.7988942,4.23304028 25.0017677,4.23304028 C24.1931795,4.23304028 23.4358552,4.55119623 22.8635139,5.12786112 L0.414757837,27.8090534 C-0.138252612,28.3676399 -0.138252612,29.2731696 0.414757837,29.8318137 L0.831539975,30.2525672 C1.09721081,30.5208638 1.45725491,30.6710753 1.83315143,30.6710753 C2.21007439,30.6710753 2.56897803,30.5202305 2.83578932,30.2519915 L6.34356786,26.7077709 L6.34356786,46.0883398 L5.50777968,46.0883398 C4.43694212,46.0883398 3.56939202,46.9639884 3.56939202,48.0443714 C3.56939202,49.1246969 4.43694212,50 5.50777968,50 L44.4935319,50 C45.5620315,50 46.4295815,49.1246393 46.4295815,48.0443714 C46.4295815,46.9639884 45.5620314,46.0883398 44.4935319,46.0883398 L43.6633889,46.0883398 L43.6633889,26.7138162 L47.1642677,30.2519914 C47.4299955,30.5208637 47.7899826,30.6715358 48.1658791,30.6715358 C48.5417186,30.6715358 48.9016487,30.5211516 49.1673766,30.2531429 L49.5852422,29.8320439 C50.1382526,29.2736877 50.1382526,28.3682156 49.5852422,27.8098594 L27.1399644,5.13131556 Z M30.196804,46.0883973 L19.8065604,46.0883973 L19.8065604,34.9671019 L30.196804,34.9671019 L30.196804,46.0883973 Z" id="Shape" fill="#FFFFFF"></path>
            </g>
        </g>
    </g>
</svg>